<?xml version="1.0" encoding="UTF-8" standalone="no"?>
<svg xmlns:ffdec="https://www.free-decompiler.com/flash" xmlns:xlink="http://www.w3.org/1999/xlink" ffdec:objectType="shape" height="26.4px" width="45.6px" xmlns="http://www.w3.org/2000/svg">
  <g transform="matrix(1.0, 0.0, 0.0, 1.0, 23.05, 20.7)">
    <path d="M8.7 -12.35 L9.45 -12.55 10.8 -12.7 12.45 -12.5 13.45 -12.15 14.2 -11.6 14.25 -11.55 14.2 -11.55 13.95 -10.8 Q13.7 -10.45 13.4 -10.35 L12.65 -10.95 12.6 -10.95 10.35 -11.5 9.95 -11.5 8.75 -11.4 Q8.45 -11.6 8.45 -11.85 L8.7 -12.35 M-2.05 -17.05 L-1.55 -17.05 -1.5 -17.05 Q1.1 -17.05 2.85 -16.15 L4.05 -15.3 4.3 -14.95 Q4.3 -14.05 3.8 -13.4 L3.1 -12.85 Q2.7 -13.6 1.5 -14.2 -0.25 -15.1 -2.85 -15.1 L-3.5 -15.05 -3.65 -15.55 Q-3.65 -16.35 -2.05 -17.05 M15.85 -5.55 L16.05 -5.45 16.0 -5.4 15.85 -5.55" fill="#ffcc66" fill-rule="evenodd" stroke="none"/>
    <path d="M14.25 -11.55 L14.2 -11.6 13.45 -12.15 12.45 -12.5 10.8 -12.7 9.45 -12.55 8.7 -12.35 8.15 -12.15 Q7.1 -11.6 7.05 -10.9 L7.05 -10.8 Q7.05 -10.05 8.15 -9.5 9.25 -8.95 10.8 -8.95 12.4 -8.95 13.45 -9.5 L13.7 -9.65 Q14.55 -10.1 14.55 -10.8 L14.25 -11.55 M3.3 -12.05 Q4.65 -12.85 4.65 -14.0 4.65 -14.7 4.05 -15.3 L2.85 -16.15 Q1.1 -17.05 -1.5 -17.05 L-1.55 -17.05 -2.05 -17.05 Q-4.25 -16.95 -5.85 -16.15 -7.55 -15.3 -7.65 -14.1 L-7.6 -14.0 -7.65 -13.95 Q-7.6 -12.7 -5.85 -11.8 -4.05 -10.9 -1.5 -10.9 1.1 -10.9 2.85 -11.8 L3.3 -12.05 M22.15 -9.9 Q19.1 -8.6 15.15 -7.5 L4.35 -5.4 Q-2.45 -4.35 -22.6 -7.65 L-18.75 -10.55 Q-13.25 -10.55 -11.75 -14.85 -6.8 -17.6 -0.6 -20.3 16.3 -17.1 22.15 -9.9" fill="#fed69a" fill-rule="evenodd" stroke="none"/>
    <path d="M8.7 -12.35 L8.45 -11.85 Q8.45 -11.6 8.75 -11.4 L7.3 -10.95 7.05 -10.8 7.05 -10.9 Q7.1 -11.6 8.15 -12.15 L8.7 -12.35 M13.4 -10.35 Q13.7 -10.45 13.95 -10.8 L14.2 -11.55 14.25 -11.55 14.55 -10.8 Q14.55 -10.1 13.7 -9.65 L13.4 -10.35 M4.05 -15.3 Q4.65 -14.7 4.65 -14.0 4.65 -12.85 3.3 -12.05 L3.1 -12.85 3.8 -13.4 Q4.3 -14.05 4.3 -14.95 L4.05 -15.3 M-7.6 -14.0 L-7.65 -14.1 Q-7.55 -15.3 -5.85 -16.15 -4.25 -16.95 -2.05 -17.05 -3.65 -16.35 -3.65 -15.55 L-3.5 -15.05 Q-5.65 -15.0 -7.2 -14.2 L-7.6 -14.0" fill="#d1a753" fill-rule="evenodd" stroke="none"/>
    <path d="M8.75 -11.4 L9.95 -11.5 10.35 -11.5 12.6 -10.95 12.65 -10.95 13.4 -10.35 13.7 -9.65 13.45 -9.5 Q12.4 -8.95 10.8 -8.95 9.25 -8.95 8.15 -9.5 7.05 -10.05 7.05 -10.8 L7.3 -10.95 8.75 -11.4 M3.3 -12.05 L2.85 -11.8 Q1.1 -10.9 -1.5 -10.9 -4.05 -10.9 -5.85 -11.8 -7.6 -12.7 -7.65 -13.95 L-7.6 -14.0 -7.2 -14.2 Q-5.65 -15.0 -3.5 -15.05 L-2.85 -15.1 Q-0.25 -15.1 1.5 -14.2 2.7 -13.6 3.1 -12.85 L3.3 -12.05" fill="url(#gradient0)" fill-rule="evenodd" stroke="none"/>
    <path d="M15.85 -5.55 L14.9 -5.7 14.85 -5.7 Q13.65 -5.65 12.85 -4.9 12.05 -4.05 12.05 -2.85 12.05 -1.65 12.85 -0.85 L13.1 -0.65 13.5 -0.35 Q14.15 0.0 14.9 0.0 L15.5 -0.05 15.9 -0.15 16.9 -0.85 17.65 -2.05 17.75 -2.85 Q17.75 -4.05 16.9 -4.9 L16.05 -5.45 15.85 -5.55 M-22.6 -7.65 Q-2.45 -4.35 4.35 -5.4 L15.15 -7.5 Q19.1 -8.6 22.15 -9.9 22.2 -2.3 20.45 3.7 5.45 6.15 -9.85 4.8 L-12.75 4.5 -18.75 3.7 Q-20.45 -0.15 -22.6 -7.65 M-11.0 -2.75 L-12.25 -3.0 Q-13.6 -3.0 -14.55 -2.05 -15.5 -1.1 -15.5 0.25 -15.5 1.35 -14.85 2.2 L-14.55 2.55 -14.05 2.95 -12.45 3.5 -12.25 3.5 Q-10.9 3.5 -9.95 2.55 -9.4 2.0 -9.15 1.3 L-9.0 0.25 -9.2 -0.95 -9.95 -2.05 Q-10.45 -2.55 -11.0 -2.75 M-5.0 -3.1 L-5.7 -3.25 Q-6.5 -3.25 -7.05 -2.7 -7.6 -2.15 -7.6 -1.4 L-7.3 -0.35 -7.2 -0.25 -7.05 -0.05 -6.75 0.15 -6.05 0.45 -5.7 0.5 Q-4.9 0.5 -4.4 -0.05 L-4.25 -0.15 Q-3.9 -0.6 -3.85 -1.15 L-3.85 -1.4 -3.95 -2.05 -4.4 -2.7 -4.65 -2.95 -5.0 -3.1" fill="url(#gradient1)" fill-rule="evenodd" stroke="none"/>
    <path d="M13.1 -0.65 L12.85 -0.85 Q12.05 -1.65 12.05 -2.85 12.05 -4.05 12.85 -4.9 13.65 -5.65 14.85 -5.7 L14.9 -5.7 15.85 -5.55 16.0 -5.4 Q16.85 -4.55 16.85 -3.35 L16.85 -3.1 16.85 -3.0 Q16.75 -2.05 16.0 -1.35 L15.2 -0.75 14.55 -0.55 14.1 -0.5 14.0 -0.5 13.1 -0.65" fill="url(#gradient2)" fill-rule="evenodd" stroke="none"/>
    <path d="M16.05 -5.45 L16.9 -4.9 Q17.75 -4.05 17.75 -2.85 L17.65 -2.05 Q17.6 -3.15 16.95 -3.15 L16.85 -3.1 16.85 -3.35 Q16.85 -4.55 16.0 -5.4 L16.05 -5.45 M15.5 -0.05 L14.9 0.0 Q14.15 0.0 13.5 -0.35 L13.1 -0.65 14.0 -0.5 14.1 -0.5 14.55 -0.55 14.5 -0.45 Q14.5 -0.1 15.45 -0.1 L15.5 -0.05 M-10.5 0.25 Q-10.35 -0.25 -10.35 -0.8 -10.35 -1.9 -11.0 -2.75 -10.45 -2.55 -9.95 -2.05 L-9.2 -0.95 -9.0 0.25 -9.15 1.3 Q-9.2 -0.75 -9.8 -0.4 L-10.5 0.25 M-14.85 2.2 L-13.6 2.45 -13.0 2.4 -13.55 2.75 -12.45 3.5 -14.05 2.95 -14.55 2.55 -14.85 2.2 M-7.2 -0.25 L-6.5 -0.1 -6.15 -0.1 -6.15 0.2 -6.05 0.45 -6.75 0.15 -7.05 -0.05 -7.2 -0.25 M-4.6 -1.8 L-4.6 -2.0 -4.85 -2.9 -5.0 -3.1 -4.65 -2.95 -4.4 -2.7 -3.95 -2.05 -3.85 -1.4 -3.85 -1.15 -4.0 -1.5 -4.5 -1.85 -4.6 -1.8" fill="#b89149" fill-rule="evenodd" stroke="none"/>
    <path d="M17.65 -2.05 L16.9 -0.85 15.9 -0.15 15.5 -0.05 15.45 -0.1 Q14.5 -0.1 14.5 -0.45 L14.55 -0.55 15.2 -0.75 16.0 -1.35 Q16.75 -2.05 16.85 -3.0 L16.85 -3.1 16.95 -3.15 Q17.6 -3.15 17.65 -2.05 M-13.0 2.4 L-12.45 2.3 -12.4 2.25 -11.3 1.5 -10.65 0.6 -10.5 0.25 -9.8 -0.4 Q-9.2 -0.75 -9.15 1.3 -9.4 2.0 -9.95 2.55 -10.9 3.5 -12.25 3.5 L-12.45 3.5 -13.55 2.75 -13.0 2.4 M-6.15 -0.1 L-5.8 -0.25 -5.65 -0.3 Q-5.4 -0.4 -5.15 -0.65 L-4.65 -1.4 -4.6 -1.8 -4.5 -1.85 -4.0 -1.5 -3.85 -1.15 Q-3.9 -0.6 -4.25 -0.15 L-4.4 -0.05 Q-4.9 0.5 -5.7 0.5 L-6.05 0.45 -6.15 0.2 -6.15 -0.1" fill="#d9ab56" fill-rule="evenodd" stroke="none"/>
    <path d="M-11.0 -2.75 Q-10.35 -1.9 -10.35 -0.8 -10.35 -0.25 -10.5 0.25 L-10.65 0.6 -11.3 1.5 -12.4 2.25 -12.45 2.3 -13.0 2.4 -13.6 2.45 -14.85 2.2 Q-15.5 1.35 -15.5 0.25 -15.5 -1.1 -14.55 -2.05 -13.6 -3.0 -12.25 -3.0 L-11.0 -2.75" fill="url(#gradient3)" fill-rule="evenodd" stroke="none"/>
    <path d="M-7.2 -0.25 L-7.3 -0.35 -7.6 -1.4 Q-7.6 -2.15 -7.05 -2.7 -6.5 -3.25 -5.7 -3.25 L-5.0 -3.1 -4.85 -2.9 -4.6 -2.0 -4.6 -1.8 -4.65 -1.4 -5.15 -0.65 Q-5.4 -0.4 -5.65 -0.3 L-5.8 -0.25 -6.15 -0.1 -6.5 -0.1 -7.2 -0.25" fill="url(#gradient4)" fill-rule="evenodd" stroke="none"/>
    <path d="M-22.6 -7.65 Q-20.45 -0.15 -18.75 3.7 L-12.75 4.5 -9.85 4.8 Q5.45 6.15 20.45 3.7 22.2 -2.3 22.15 -9.9 16.3 -17.1 -0.6 -20.3 -6.8 -17.6 -11.75 -14.85 -13.25 -10.55 -18.75 -10.55 L-22.6 -7.65 Z" fill="none" stroke="#000000" stroke-linecap="round" stroke-linejoin="miter-clip" stroke-miterlimit="5.0" stroke-opacity="0.4509804" stroke-width="0.8"/>
  </g>
  <defs>
    <linearGradient gradientTransform="matrix(-3.0E-4, 0.0025, -0.0025, -3.0E-4, -1.75, -10.95)" gradientUnits="userSpaceOnUse" id="gradient0" spreadMethod="pad" x1="-819.2" x2="819.2">
      <stop offset="0.0" stop-color="#946b45"/>
      <stop offset="0.9764705882352941" stop-color="#543c27"/>
    </linearGradient>
    <linearGradient gradientTransform="matrix(0.0, 0.0071, -0.0093, 0.0, -0.8, -1.9)" gradientUnits="userSpaceOnUse" id="gradient1" spreadMethod="pad" x1="-819.2" x2="819.2">
      <stop offset="0.0" stop-color="#f3c260"/>
      <stop offset="1.0" stop-color="#d9ad56"/>
    </linearGradient>
    <linearGradient gradientTransform="matrix(-0.0039, -0.0023, 0.0016, -0.0027, 13.9, -3.3)" gradientUnits="userSpaceOnUse" id="gradient2" spreadMethod="pad" x1="-819.2" x2="819.2">
      <stop offset="0.03137254901960784" stop-color="#946b45"/>
      <stop offset="0.9764705882352941" stop-color="#543c27"/>
    </linearGradient>
    <linearGradient gradientTransform="matrix(-0.003, -8.0E-4, 9.0E-4, -0.0032, -12.95, -0.3)" gradientUnits="userSpaceOnUse" id="gradient3" spreadMethod="pad" x1="-819.2" x2="819.2">
      <stop offset="0.0" stop-color="#946b45"/>
      <stop offset="1.0" stop-color="#543c27"/>
    </linearGradient>
    <linearGradient gradientTransform="matrix(-0.0023, -0.0023, 0.0014, -0.0014, -6.1, -1.7)" gradientUnits="userSpaceOnUse" id="gradient4" spreadMethod="pad" x1="-819.2" x2="819.2">
      <stop offset="0.0" stop-color="#946b45"/>
      <stop offset="0.9764705882352941" stop-color="#543c27"/>
    </linearGradient>
  </defs>
</svg>
